<svg xmlns="http://www.w3.org/2000/svg" viewBox="-309.12812921102034 -288.0 508 576"><rect x="-309.12812921102034" y="-288.0" width="100%" height="100%" fill="rgba(13, 15, 14, 1.0)" /><defs><mask x="-309.12812921102034" y="-288.0" width="100%" height="100%" id="full-mask" mask-type="luminance" maskUnits="userSpaceOnUse"><rect x="-309.12812921102034" y="-288.0" width="100%" height="100%" fill="rgba(255, 255, 255, 1.0)" /></mask><mask x="-309.12812921102034" y="-288.0" width="100%" height="100%" id="text-mask-1" mask-type="luminance" maskUnits="userSpaceOnUse"><rect x="-309.12812921102034" y="-288.0" width="100%" height="100%" fill="rgba(255, 255, 255, 1.0)" /><text stroke="rgba(51, 51, 51, 1.0)" stroke-width="7.35" stroke-linecap="round" stroke-linejoin="round" font-weight="800" font-family="system-ui, -apple-system, BlinkMacSystemFont, sans-serif" font-size="44.1px" text-anchor="middle" dominant-baseline="central" x="55.42562584220407" y="96.0">a</text><text fill="rgba(0, 0, 0, 1.0)" font-weight="800" font-family="system-ui, -apple-system, BlinkMacSystemFont, sans-serif" font-size="44.1px" text-anchor="middle" dominant-baseline="central" x="55.42562584220407" y="96.0">a</text></mask></defs><g mask="url(#full-mask)"><polygon points="-222.5685287726007,-319.5 -222.5685287726007,-256.5 -277.12812921102034,-225.0 -331.68772964944,-256.5 -331.68772964944,-319.5 -277.12812921102034,-351.0" fill="rgba(16, 18, 17, 1.0)" stroke="rgba(46, 42, 29, 1.0)" stroke-width="2.0" /><polygon points="-111.71727708819259,-319.5 -111.71727708819259,-256.5 -166.27687752661222,-225.0 -220.83647796503186,-256.5 -220.83647796503186,-319.5 -166.27687752661222,-351.0" fill="rgba(16, 18, 17, 1.0)" stroke="rgba(46, 42, 29, 1.0)" stroke-width="2.0" /><polygon points="-0.8660254037844481,-319.5 -0.8660254037844481,-256.5 -55.42562584220408,-225.0 -109.98522628062372,-256.5 -109.98522628062372,-319.5 -55.4256258422041,-351.0" fill="rgba(16, 18, 17, 1.0)" stroke="rgba(46, 42, 29, 1.0)" stroke-width="2.0" /><polygon points="109.98522628062369,-319.5 109.98522628062369,-256.5 55.42562584220406,-225.0 0.8660254037844197,-256.5 0.8660254037844268,-319.5 55.42562584220404,-351.0" fill="rgba(16, 18, 17, 1.0)" stroke="rgba(46, 42, 29, 1.0)" stroke-width="2.0" /><polygon points="220.83647796503186,-319.5 220.83647796503186,-256.5 166.27687752661222,-225.0 111.71727708819259,-256.5 111.71727708819259,-319.5 166.27687752661222,-351.0" fill="rgba(16, 18, 17, 1.0)" stroke="rgba(46, 42, 29, 1.0)" stroke-width="2.0" /><polygon points="-277.9941546148048,-223.5 -277.9941546148048,-160.5 -332.55375505322445,-129.0 -387.1133554916441,-160.5 -387.1133554916441,-223.5 -332.55375505322445,-255.0" fill="rgba(16, 18, 17, 1.0)" stroke="rgba(46, 42, 29, 1.0)" stroke-width="2.0" /><polygon points="-167.14290293039664,-223.5 -167.14290293039664,-160.5 -221.70250336881628,-129.0 -276.2621038072359,-160.5 -276.2621038072359,-223.5 -221.70250336881628,-255.0" fill="rgba(16, 18, 17, 1.0)" stroke="rgba(46, 42, 29, 1.0)" stroke-width="2.0" /><polygon points="-56.291651245988504,-223.5 -56.291651245988504,-160.5 -110.85125168440814,-129.0 -165.41085212282778,-160.5 -165.41085212282778,-223.5 -110.85125168440815,-255.0" fill="rgba(16, 18, 17, 1.0)" stroke="rgba(46, 42, 29, 1.0)" stroke-width="2.0" /><polygon points="54.559600438419636,-223.5 54.559600438419636,-160.5 3.857637417314163E-15,-129.0 -54.559600438419636,-160.5 -54.55960043841963,-223.5 -1.1572912251942487E-14,-255.0" fill="rgba(16, 18, 17, 1.0)" stroke="rgba(46, 42, 29, 1.0)" stroke-width="2.0" /><polygon points="165.41085212282778,-223.5 165.41085212282778,-160.5 110.85125168440814,-129.0 56.291651245988504,-160.5 56.29165124598851,-223.5 110.85125168440813,-255.0" fill="rgba(16, 18, 17, 1.0)" stroke="rgba(46, 42, 29, 1.0)" stroke-width="2.0" /><polygon points="276.2621038072359,-223.5 276.2621038072359,-160.5 221.7025033688163,-129.0 167.14290293039667,-160.5 167.14290293039667,-223.5 221.7025033688163,-255.0" fill="rgba(16, 18, 17, 1.0)" stroke="rgba(46, 42, 29, 1.0)" stroke-width="2.0" /><polygon points="-222.5685287726007,-127.5 -222.5685287726007,-64.5 -277.12812921102034,-33.0 -331.68772964944,-64.5 -331.68772964944,-127.5 -277.12812921102034,-159.0" fill="rgba(16, 18, 17, 1.0)" stroke="rgba(46, 42, 29, 1.0)" stroke-width="2.0" /><polygon points="-111.71727708819259,-127.5 -111.71727708819259,-64.5 -166.27687752661222,-33.0 -220.83647796503186,-64.5 -220.83647796503186,-127.5 -166.27687752661222,-159.0" fill="rgba(16, 18, 17, 1.0)" stroke="rgba(46, 42, 29, 1.0)" stroke-width="2.0" /><polygon points="-0.8660254037844339,-127.5 -0.8660254037844339,-64.5 -55.42562584220406,-33.0 -109.9852262806237,-64.5 -109.98522628062369,-127.5 -55.425625842204084,-159.0" fill="rgba(16, 18, 17, 1.0)" stroke="rgba(46, 42, 29, 1.0)" stroke-width="2.0" /><polygon points="109.9852262806237,-127.5 109.9852262806237,-64.5 55.42562584220408,-33.0 0.8660254037844339,-64.5 0.866025403784441,-127.5 55.425625842204056,-159.0" fill="rgba(16, 18, 17, 1.0)" stroke="rgba(46, 42, 29, 1.0)" stroke-width="2.0" /><polygon points="220.83647796503186,-127.5 220.83647796503186,-64.5 166.27687752661222,-33.0 111.71727708819259,-64.5 111.71727708819259,-127.5 166.27687752661222,-159.0" fill="rgba(16, 18, 17, 1.0)" stroke="rgba(46, 42, 29, 1.0)" stroke-width="2.0" /><polygon points="-277.9941546148048,-31.499999999999996 -277.9941546148048,31.499999999999996 -332.55375505322445,63.0 -387.1133554916441,31.499999999999996 -387.1133554916441,-31.500000000000007 -332.55375505322445,-63.0" fill="rgba(16, 18, 17, 1.0)" stroke="rgba(46, 42, 29, 1.0)" stroke-width="2.0" /><polygon points="-167.14290293039664,-31.499999999999996 -167.14290293039664,31.499999999999996 -221.70250336881628,63.0 -276.2621038072359,31.499999999999996 -276.2621038072359,-31.500000000000007 -221.70250336881628,-63.0" fill="rgba(16, 18, 17, 1.0)" stroke="rgba(46, 42, 29, 1.0)" stroke-width="2.0" /><polygon points="-56.291651245988504,-31.499999999999996 -56.291651245988504,31.499999999999996 -110.85125168440814,63.0 -165.41085212282778,31.499999999999996 -165.41085212282778,-31.500000000000007 -110.85125168440815,-63.0" fill="rgba(16, 18, 17, 1.0)" stroke="rgba(46, 42, 29, 1.0)" stroke-width="2.0" /><polygon points="54.559600438419636,-31.499999999999996 54.559600438419636,31.499999999999996 3.857637417314163E-15,63.0 -54.559600438419636,31.499999999999996 -54.55960043841963,-31.500000000000007 -1.1572912251942487E-14,-63.0" fill="rgba(16, 18, 17, 1.0)" stroke="rgba(46, 42, 29, 1.0)" stroke-width="2.0" /><polygon points="165.41085212282778,-31.499999999999996 165.41085212282778,31.499999999999996 110.85125168440814,63.0 56.291651245988504,31.499999999999996 56.29165124598851,-31.500000000000007 110.85125168440813,-63.0" fill="rgba(16, 18, 17, 1.0)" stroke="rgba(46, 42, 29, 1.0)" stroke-width="2.0" /><polygon points="276.2621038072359,-31.499999999999996 276.2621038072359,31.499999999999996 221.70250336881628,63.0 167.14290293039664,31.499999999999996 167.14290293039664,-31.500000000000007 221.70250336881628,-63.0" fill="rgba(16, 18, 17, 1.0)" stroke="rgba(46, 42, 29, 1.0)" stroke-width="2.0" /><polygon points="-222.56852877260076,64.5 -222.56852877260076,127.5 -277.1281292110204,159.0 -331.68772964944003,127.5 -331.68772964944003,64.5 -277.1281292110204,33.0" fill="rgba(16, 18, 17, 1.0)" stroke="rgba(46, 42, 29, 1.0)" stroke-width="2.0" /><polygon points="-111.71727708819259,64.5 -111.71727708819259,127.5 -166.27687752661222,159.0 -220.83647796503186,127.5 -220.83647796503186,64.5 -166.27687752661222,33.0" fill="rgba(16, 18, 17, 1.0)" stroke="rgba(46, 42, 29, 1.0)" stroke-width="2.0" /><polygon points="-0.8660254037844339,64.5 -0.8660254037844339,127.5 -55.42562584220406,159.0 -109.9852262806237,127.5 -109.98522628062369,64.5 -55.425625842204084,33.0" fill="rgba(16, 18, 17, 1.0)" stroke="rgba(46, 42, 29, 1.0)" stroke-width="2.0" /><polygon points="109.9852262806237,64.5 109.9852262806237,127.5 55.42562584220408,159.0 0.8660254037844339,127.5 0.866025403784441,64.5 55.425625842204056,33.0" fill="rgba(240, 138, 60, 1.0)" stroke="rgba(46, 42, 29, 1.0)" stroke-width="2.0" /><text fill="rgba(98, 47, 8, 1.0)" font-weight="800" font-family="system-ui, -apple-system, BlinkMacSystemFont, sans-serif" font-size="44.1px" text-anchor="middle" dominant-baseline="central" x="55.42562584220407" y="96.0">a</text><polygon points="220.83647796503186,64.5 220.83647796503186,127.5 166.27687752661222,159.0 111.71727708819259,127.5 111.71727708819259,64.5 166.27687752661222,33.0" fill="rgba(16, 18, 17, 1.0)" stroke="rgba(46, 42, 29, 1.0)" stroke-width="2.0" /><polygon points="-277.9941546148048,160.5 -277.9941546148048,223.5 -332.55375505322445,255.0 -387.1133554916441,223.5 -387.1133554916441,160.5 -332.55375505322445,129.0" fill="rgba(16, 18, 17, 1.0)" stroke="rgba(46, 42, 29, 1.0)" stroke-width="2.0" /><polygon points="-167.14290293039667,160.5 -167.14290293039667,223.5 -221.7025033688163,255.0 -276.2621038072359,223.5 -276.2621038072359,160.5 -221.7025033688163,129.0" fill="rgba(16, 18, 17, 1.0)" stroke="rgba(46, 42, 29, 1.0)" stroke-width="2.0" /><polygon points="-56.291651245988504,160.5 -56.291651245988504,223.5 -110.85125168440814,255.0 -165.41085212282778,223.5 -165.41085212282778,160.5 -110.85125168440815,129.0" fill="rgba(16, 18, 17, 1.0)" stroke="rgba(46, 42, 29, 1.0)" stroke-width="2.0" /><polygon points="54.559600438419636,160.5 54.559600438419636,223.5 3.857637417314163E-15,255.0 -54.559600438419636,223.5 -54.55960043841963,160.5 -1.1572912251942487E-14,129.0" fill="rgba(16, 18, 17, 1.0)" stroke="rgba(46, 42, 29, 1.0)" stroke-width="2.0" /><polygon points="165.41085212282778,160.5 165.41085212282778,223.5 110.85125168440814,255.0 56.291651245988504,223.5 56.29165124598851,160.5 110.85125168440813,129.0" fill="rgba(63, 182, 217, 1.0)" stroke="rgba(46, 42, 29, 1.0)" stroke-width="2.0" /><polygon points="276.2621038072359,160.5 276.2621038072359,223.5 221.70250336881628,255.0 167.14290293039664,223.5 167.14290293039664,160.5 221.70250336881628,129.0" fill="rgba(16, 18, 17, 1.0)" stroke="rgba(46, 42, 29, 1.0)" stroke-width="2.0" /><polygon points="-222.5685287726007,256.5 -222.5685287726007,319.5 -277.12812921102034,351.0 -331.68772964944,319.5 -331.68772964944,256.5 -277.12812921102034,225.0" fill="rgba(16, 18, 17, 1.0)" stroke="rgba(46, 42, 29, 1.0)" stroke-width="2.0" /><polygon points="-111.71727708819259,256.5 -111.71727708819259,319.5 -166.27687752661222,351.0 -220.83647796503186,319.5 -220.83647796503186,256.5 -166.27687752661222,225.0" fill="rgba(16, 18, 17, 1.0)" stroke="rgba(46, 42, 29, 1.0)" stroke-width="2.0" /><polygon points="-0.8660254037844197,256.5 -0.8660254037844197,319.5 -55.42562584220405,351.0 -109.98522628062369,319.5 -109.98522628062369,256.5 -55.42562584220407,225.0" fill="rgba(16, 18, 17, 1.0)" stroke="rgba(46, 42, 29, 1.0)" stroke-width="2.0" /><polygon points="109.98522628062372,256.5 109.98522628062372,319.5 55.42562584220409,351.0 0.8660254037844481,319.5 0.8660254037844552,256.5 55.42562584220407,225.0" fill="rgba(16, 18, 17, 1.0)" stroke="rgba(46, 42, 29, 1.0)" stroke-width="2.0" /><polygon points="220.83647796503186,256.5 220.83647796503186,319.5 166.27687752661222,351.0 111.71727708819259,319.5 111.71727708819259,256.5 166.27687752661222,225.0" fill="rgba(16, 18, 17, 1.0)" stroke="rgba(46, 42, 29, 1.0)" stroke-width="2.0" /><polygon points="109.9852262806237,64.5 109.9852262806237,127.5 55.42562584220408,159.0 0.8660254037844339,127.5 0.866025403784441,64.5 55.425625842204056,33.0" fill="rgba(0, 0, 0, 0.0)" stroke="rgba(58, 66, 63, 1.0)" stroke-width="4.0" /><polygon points="165.41085212282778,160.5 165.41085212282778,223.5 110.85125168440814,255.0 56.291651245988504,223.5 56.29165124598851,160.5 110.85125168440813,129.0" fill="rgba(0, 0, 0, 0.0)" stroke="rgba(58, 66, 63, 1.0)" stroke-width="4.0" /><polygon points="140.85903192553894,-17.325 140.85903192553894,17.325 110.85125168440814,34.650000000000006 80.84347144327734,17.325 80.84347144327734,-17.325000000000006 110.85125168440814,-34.650000000000006" fill="rgba(16, 18, 17, 0.7686274509803922)" stroke="rgba(209, 100, 16, 1.0)" stroke-width="8.0" /><polygon points="-191.69472312768548,-17.325 -191.69472312768548,17.325 -221.70250336881628,34.650000000000006 -251.71028360994708,17.325 -251.71028360994708,-17.325000000000006 -221.70250336881628,-34.650000000000006" fill="rgba(16, 18, 17, 0.7686274509803922)" stroke="rgba(209, 100, 16, 1.0)" stroke-width="8.0" /><line x1="110.85125168440814" y1="0.0" x2="-221.70250336881628" y2="0.0" stroke="rgba(209, 100, 16, 0.7686274509803922)" stroke-width="4.0" stroke-linecap="round" stroke-dasharray="6.0 12.0" mask="url(#text-mask-1)" /><polygon points="140.85903192553894,-17.325 140.85903192553894,17.325 110.85125168440814,34.650000000000006 80.84347144327734,17.325 80.84347144327734,-17.325000000000006 110.85125168440814,-34.650000000000006" fill="rgba(16, 18, 17, 0.7686274509803922)" stroke="rgba(209, 100, 16, 1.0)" stroke-width="8.0" /><circle cx="110.85125168440814" cy="0.0" fill="rgba(209, 100, 16, 1.0)" r="4.0" mask="url(#text-mask-1)" /><polygon points="-191.69472312768548,-17.325 -191.69472312768548,17.325 -221.70250336881628,34.650000000000006 -251.71028360994708,17.325 -251.71028360994708,-17.325000000000006 -221.70250336881628,-34.650000000000006" fill="rgba(16, 18, 17, 0.7686274509803922)" stroke="rgba(209, 100, 16, 1.0)" stroke-width="8.0" /><circle cx="-221.70250336881628" cy="0.0" fill="rgba(209, 100, 16, 1.0)" r="4.0" mask="url(#text-mask-1)" /><polygon points="140.85903192553894,174.675 140.85903192553894,209.325 110.85125168440814,226.65 80.84347144327734,209.325 80.84347144327734,174.67499999999998 110.85125168440814,157.35" fill="rgba(16, 18, 17, 0.7686274509803922)" stroke="rgba(167, 139, 250, 1.0)" stroke-width="8.0" /><polygon points="-80.84347144327734,-209.325 -80.84347144327734,-174.675 -110.85125168440814,-157.35 -140.85903192553894,-174.675 -140.85903192553894,-209.32500000000002 -110.85125168440814,-226.65" fill="rgba(16, 18, 17, 0.7686274509803922)" stroke="rgba(167, 139, 250, 1.0)" stroke-width="8.0" /><line x1="110.85125168440814" y1="192.0" x2="-110.85125168440814" y2="-192.0" stroke="rgba(167, 139, 250, 0.7686274509803922)" stroke-width="4.0" stroke-linecap="round" stroke-dasharray="6.0 12.0" mask="url(#text-mask-1)" /><polygon points="140.85903192553894,174.675 140.85903192553894,209.325 110.85125168440814,226.65 80.84347144327734,209.325 80.84347144327734,174.67499999999998 110.85125168440814,157.35" fill="rgba(16, 18, 17, 0.7686274509803922)" stroke="rgba(167, 139, 250, 1.0)" stroke-width="8.0" /><circle cx="110.85125168440814" cy="192.0" fill="rgba(167, 139, 250, 1.0)" r="4.0" mask="url(#text-mask-1)" /><polygon points="-80.84347144327734,-209.325 -80.84347144327734,-174.675 -110.85125168440814,-157.35 -140.85903192553894,-174.675 -140.85903192553894,-209.32500000000002 -110.85125168440814,-226.65" fill="rgba(16, 18, 17, 0.7686274509803922)" stroke="rgba(167, 139, 250, 1.0)" stroke-width="8.0" /><circle cx="-110.85125168440814" cy="-192.0" fill="rgba(167, 139, 250, 1.0)" r="4.0" mask="url(#text-mask-1)" /></g></svg>